PathFileType	4	(X/Y/Z)	 s09c0203.trc
DataRate	CameraRate	NumFrames	NumMarkers	Units	OrigDataRate	OrigDataStartFrame	OrigNumFrames
200	200	5	50	mm	200	1	2000
Frame#	Time	racr			lacr			c7			jug			rlel			rdr			llel			ldr			s2			lic			ric			lasi			rasi			rpsi			lpsi			rgt			lgt			rth1			rth2			rth3			rth4			rlfc			rmfc			rsh1			rsh2			rsh3			rsh4			rlmal			rmmal			rcal			rtoe			rmt5			lth1			lth2			lth4			lth3			llfc			lmfc			llmal			lmmal			lcal			lmt5			lsh1			lsh2			lsh3			lsh4			ltoe			SBIKE			LBIKE			RBIKE			
		X1	Y1	Z1	X2	Y2	Z2	X3	Y3	Z3	X4	Y4	Z4	X5	Y5	Z5	X6	Y6	Z6	X7	Y7	Z7	X8	Y8	Z8	X9	Y9	Z9	X10	Y10	Z10	X11	Y11	Z11	X12	Y12	Z12	X13	Y13	Z13	X14	Y14	Z14	X15	Y15	Z15	X16	Y16	Z16	X17	Y17	Z17	X18	Y18	Z18	X19	Y19	Z19	X20	Y20	Z20	X21	Y21	Z21	X22	Y22	Z22	X23	Y23	Z23	X24	Y24	Z24	X25	Y25	Z25	X26	Y26	Z26	X27	Y27	Z27	X28	Y28	Z28	X29	Y29	Z29	X30	Y30	Z30	X31	Y31	Z31	X32	Y32	Z32	X33	Y33	Z33	X34	Y34	Z34	X35	Y35	Z35	X36	Y36	Z36	X37	Y37	Z37	X38	Y38	Z38	X39	Y39	Z39	X40	Y40	Z40	X41	Y41	Z41	X42	Y42	Z42	X43	Y43	Z43	X44	Y44	Z44	X45	Y45	Z45	X46	Y46	Z46	X47	Y47	Z47	X48	Y48	Z48	X49	Y49	Z49	X50	Y50	Z50	
1	0.0050	508.212955	1296.608013	-106.141431	509.220521	1280.410577	-417.794050	457.979389	1309.615825	-231.725160	474.847494	1177.740958	-256.743041	502.215951	1065.273147	20.577853	688.041546	911.977367	-45.504552	452.232730	1021.324616	-528.847954	669.968313	909.880907	-458.658184	3.552773	1119.730115	-238.428606	139.531228	1119.654551	-385.098766	163.538889	1114.898893	-92.638358	184.948247	1065.626805	-367.344158	203.814047	1058.244691	-116.073236	44.546717	1148.832800	-174.996500	35.737669	1159.000396	-283.069954	130.369973	974.982652	-45.532228	99.303768	1008.794627	-433.419041	214.411775	864.018808	-47.067481	282.098464	809.209844	-54.091173	309.742528	724.720041	-59.440659	308.797805	826.108965	-76.262037	342.767950	624.093706	-88.874307	326.747241	610.227280	-185.687700	257.712164	560.517382	-62.368829	215.597877	482.138254	-77.524663	140.696935	437.171878	-80.225051	236.043899	467.114158	-109.735904	69.029973	364.952960	-84.523713	78.895483	376.073072	-162.856585	-16.446432	363.313773	-123.878163	223.688744	251.638040	-123.469001	139.944908	269.303650	-60.169794	218.422757	942.621945	-439.009517	303.761859	936.808745	-437.953226	317.051836	968.952509	-421.228393	378.597657	886.076146	-441.639005	466.635906	824.046190	-428.328330	492.261102	818.794387	-329.944258	374.559010	480.451682	-408.466543	390.002657	485.730953	-338.163014	299.617397	456.460605	-367.685365	455.621491	376.323786	-433.104538	444.019474	725.524162	-443.200068	444.096641	639.536421	-429.080031	399.147028	563.203953	-420.537482	470.680084	637.017057	-399.661362	547.767259	377.532174	-367.821387	-64.964867	851.578566	-238.752966	21.009175	84.674779	-442.142780	21.219083	83.907850	-43.670859	
2	0.0100	508.264572	1296.549807	-106.075781	509.249511	1280.412735	-417.789851	458.024601	1309.585299	-231.696938	474.848866	1177.710330	-256.743787	502.231114	1065.264085	20.606431	688.037587	911.982593	-45.494638	452.248812	1021.343784	-528.839015	669.978720	909.876210	-458.650102	3.577161	1119.749641	-238.406305	139.541875	1119.648860	-385.078633	163.570764	1114.894517	-92.610469	184.939068	1065.641439	-367.346523	203.840236	1058.218996	-116.013898	44.557852	1148.828331	-174.968666	35.738260	1159.017355	-283.058936	130.389369	974.975799	-45.517777	99.302468	1008.802557	-433.408160	214.449824	863.994407	-47.076827	282.090273	809.210184	-54.070712	309.800476	724.683847	-59.467747	308.825055	826.122180	-76.241971	342.792355	624.102781	-88.870345	326.742945	610.264006	-185.705273	257.738302	560.517543	-62.385418	215.626225	482.127098	-77.526977	140.710413	437.154110	-80.201850	236.059684	467.134795	-109.720931	69.075820	364.953894	-84.517880	78.933177	376.050516	-162.873137	-16.431706	363.335110	-123.887808	223.711998	251.612697	-123.439948	139.973756	269.288703	-60.166382	218.419707	942.632021	-439.007316	303.770453	936.792780	-437.943359	317.051523	968.948193	-421.224242	378.583902	886.089628	-441.670164	466.634585	824.061865	-428.340395	492.287701	818.823033	-329.928314	374.558544	480.472688	-408.455365	389.992911	485.767020	-338.134806	299.610499	456.466587	-367.684781	455.612828	376.336586	-433.115722	443.997954	725.552466	-443.209308	444.098002	639.588245	-429.085083	399.128578	563.233686	-420.562111	470.653834	637.053936	-399.685988	547.776159	377.563581	-367.840643	-64.959777	851.578064	-238.756322	21.016081	84.679160	-442.127480	21.250872	83.892463	-43.670175	
3	0.0150	508.276718	1296.533513	-106.051032	509.269353	1280.420628	-417.763125	458.048180	1309.602126	-231.693684	474.848362	1177.726142	-256.751350	502.235258	1065.243853	20.636716	688.039956	911.973006	-45.499649	452.263249	1021.356632	-528.853506	669.995119	909.863284	-458.630790	3.611552	1119.740807	-238.409303	139.545316	1119.649348	-385.080274	163.576766	1114.867726	-92.601820	184.938154	1065.637382	-367.328847	203.858759	1058.187487	-116.022012	44.598945	1148.812316	-174.969581	35.730782	1159.002077	-283.035558	130.414572	974.981392	-45.508714	99.289555	1008.803295	-433.403438	214.455766	863.981214	-47.077238	282.100754	809.208050	-54.077273	309.812344	724.669049	-59.468893	308.828496	826.102634	-76.254700	342.803406	624.097185	-88.890143	326.761160	610.237906	-185.728340	257.745462	560.508802	-62.399291	215.640597	482.117856	-77.523455	140.748717	437.128487	-80.214657	236.058032	467.126438	-109.745280	69.083697	364.948201	-84.517172	78.959190	376.031029	-162.875150	-16.408368	363.317650	-123.873289	223.740403	251.598294	-123.425962	139.999319	269.239017	-60.150872	218.420991	942.643242	-439.008514	303.741687	936.815220	-437.957590	317.039668	968.969775	-421.221437	378.579674	886.089057	-441.684538	466.629100	824.068999	-428.353873	492.284988	818.826030	-329.917173	374.551522	480.475307	-408.446439	390.009417	485.767802	-338.137105	299.602169	456.452358	-367.658458	455.604646	376.336080	-433.101957	444.002468	725.553174	-443.201968	444.080580	639.583811	-429.078929	399.116778	563.251019	-420.555204	470.645955	637.042227	-399.682730	547.759985	377.579307	-367.829175	-64.963361	851.577251	-238.739837	21.021334	84.671678	-442.122407	21.266143	83.893806	-43.663359	
4	0.0200	508.104219	1297.958842	-104.288717	509.279656	1280.419779	-417.750873	457.684157	1309.542130	-231.766889	474.885400	1177.700996	-256.735678	502.425594	1065.166142	20.829069	688.082306	911.950958	-45.516627	452.179353	1021.622163	-528.869624	670.001055	909.851970	-458.636186	3.311305	1119.517070	-238.158835	139.543434	1119.642767	-385.079443	163.589809	1114.863686	-92.588221	184.938154	1065.637382	-367.328847	203.860444	1057.949131	-115.938892	44.833641	1148.719411	-174.800621	35.865625	1159.048862	-282.966577	130.415881	974.945284	-45.508137	99.269748	1008.815311	-433.405301	214.478606	863.997332	-47.039375	282.110050	809.188929	-54.088063	309.813130	724.665092	-59.483453	307.302607	825.917976	-75.940010	343.141321	623.877723	-88.807702	326.783576	610.239487	-185.740958	257.744310	560.504842	-62.414696	215.811860	482.053619	-77.363131	140.203507	437.711235	-79.850750	236.280935	468.277648	-108.734389	69.043848	364.736439	-84.439744	78.961164	376.027387	-162.873159	-16.382714	363.289041	-123.871687	223.724778	251.551442	-123.415715	139.995402	269.234953	-60.149852	218.394159	942.632611	-439.005907	303.744283	936.812357	-437.969638	316.775108	969.358618	-421.149220	378.577848	886.096731	-441.677231	466.619966	824.074483	-428.355849	492.331274	818.733209	-330.038113	374.291383	480.893170	-408.503214	389.984955	485.780402	-338.096070	299.601257	456.436909	-367.616089	455.602428	376.362747	-433.110849	443.979979	725.572811	-443.209387	444.203185	639.430087	-428.979173	399.135625	563.147922	-420.622943	470.558841	637.232727	-399.706631	547.755942	377.604706	-367.829604	-64.967159	851.574175	-238.751141	21.013824	84.630493	-442.095865	21.266405	83.879373	-43.663168	
5	0.0250	508.138338	1297.759511	-104.678480	509.188790	1280.810713	-417.798309	457.667454	1309.607515	-231.591358	474.858140	1177.796928	-256.728130	502.170515	1065.606120	20.825235	687.845154	912.352611	-45.429704	452.067893	1021.932382	-528.963268	669.906997	910.046607	-458.676308	3.265097	1119.659765	-238.180669	139.482753	1119.843646	-385.070809	163.559469	1114.873521	-92.758369	184.923855	1065.691733	-367.352038	203.535878	1058.258652	-116.178339	44.830333	1148.818929	-174.800418	35.758203	1159.188945	-282.882768	130.309820	975.061588	-45.888435	99.280580	1009.055587	-433.247955	214.310294	864.405391	-47.036978	282.007277	809.438326	-54.046011	309.547565	725.126851	-59.455397	307.199140	826.251582	-75.867612	342.714806	624.234269	-88.793555	326.384792	610.761751	-185.841636	257.414489	560.809577	-62.560503	215.567489	482.512844	-77.303432	140.194421	437.645895	-79.864218	236.250203	468.542685	-108.740064	68.903868	365.062688	-84.274430	78.287208	376.625464	-162.904569	-16.372038	363.294611	-123.889374	223.688184	251.850736	-123.242839	139.862999	269.427268	-60.056222	218.393351	942.656767	-438.994864	303.648212	937.032676	-437.690883	316.757958	969.391373	-421.157457	378.406502	886.203806	-441.602987	466.565814	824.244254	-428.319601	492.304592	818.693224	-330.057630	374.255976	480.888877	-408.589605	389.746953	486.066169	-338.050656	299.376265	456.612141	-367.825076	455.373225	376.723543	-433.375260	443.798705	725.856522	-443.436041	444.157616	639.665927	-428.933502	398.871820	563.459786	-420.586359	470.508044	637.464342	-399.749158	547.573532	377.896496	-367.973772	-64.970758	851.604591	-238.758882	20.893416	84.853636	-442.159982	21.137753	84.078049	-43.697592	
